<svg version="1.2" xmlns="http://www.w3.org/2000/svg" viewBox="0 0 1254 532" width="66" height="28">
	<title>Flow Logo</title>
	<style>
		.s0 { fill: #2badff } 
	</style>
	<path id="FLOW" fill-rule="evenodd" class="s0" d="m134.6 304.2l-23.5 113.5h-81.2l64.2-303.4h178.9l-13.9 65.8h-97.8l-12 57.9h90.4l-14.3 66.2zm317.3 113.5h-180.1l64.2-303.4h81.1l-50.1 237.2h99.1zm214.6-308.3q54 0 83.8 31 30.2 30.7 30.2 86 0 55.2-20.8 101-20.6 45.6-56.9 70.1-36.3 24.4-84.2 24.4-55.8 0-86.4-31-30.3-30.9-30.3-85.8 0-55.1 21.3-101.2 21.4-46 58.2-70.1 36.9-24.4 85.1-24.4zm32 117.7q0-23.6-10-36.9-9.9-13.4-28.8-13.4-20.6 0-37.8 17.4-17.3 17.4-27.6 48-10.2 30.4-10.2 62.4 0 50.2 41.5 50.2 19.7 0 36.6-17.2 17-17.3 26.5-46.5 9.8-29.3 9.8-64zm192 117.1l8.2-21.6 19.5-48.1 69.6-160.2h69.7v164.3q0 32.4-5.4 65.6 2.1-5.8 27.7-71.8l62.9-158.1h80.2l-131.8 303.4h-95.6v-128.7q0-32.2 2.6-67.2-6.8 27.6-24.5 72.4l-52.4 123.5h-90.1l-10.2-303.4h76.8l-2.1 152.1q-1.3 55.4-5.1 77.8z"/>
</svg>